<svg width="176" height="176" viewBox="0 0 176 176" fill="none" xmlns="http://www.w3.org/2000/svg">
<path d="M8.93294 7.6V4.26667C8.93294 4.08986 8.8627 3.92029 8.73768 3.79526C8.61266 3.67024 8.44309 3.6 8.26628 3.6C8.08946 3.6 7.9199 3.67024 7.79487 3.79526C7.66985 3.92029 7.59961 4.08986 7.59961 4.26667V7.6H4.26628C4.08947 7.6 3.9199 7.67024 3.79487 7.79526C3.66985 7.92029 3.59961 8.08986 3.59961 8.26667C3.59961 8.44348 3.66985 8.61305 3.79487 8.73807C3.9199 8.8631 4.08947 8.93333 4.26628 8.93333H7.59961V12.2667C7.59961 12.4435 7.66985 12.613 7.79487 12.7381C7.9199 12.8631 8.08946 12.9333 8.26628 12.9333C8.44309 12.9333 8.61266 12.8631 8.73768 12.7381C8.8627 12.613 8.93294 12.4435 8.93294 12.2667V8.93333H12.2663C12.4431 8.93333 12.6127 8.8631 12.7377 8.73807C12.8627 8.61305 12.9329 8.44348 12.9329 8.26667C12.9329 8.08986 12.8627 7.92029 12.7377 7.79526C12.6127 7.67024 12.4431 7.6 12.2663 7.6H8.93294Z" fill="#E2E8F0"/>
<path d="M40.9329 7.6V4.26667C40.9329 4.08986 40.8627 3.92029 40.7377 3.79526C40.6127 3.67024 40.4431 3.6 40.2663 3.6C40.0895 3.6 39.9199 3.67024 39.7949 3.79526C39.6698 3.92029 39.5996 4.08986 39.5996 4.26667V7.6H36.2663C36.0895 7.6 35.9199 7.67024 35.7949 7.79526C35.6698 7.92029 35.5996 8.08986 35.5996 8.26667C35.5996 8.44348 35.6698 8.61305 35.7949 8.73807C35.9199 8.8631 36.0895 8.93333 36.2663 8.93333H39.5996V12.2667C39.5996 12.4435 39.6698 12.613 39.7949 12.7381C39.9199 12.8631 40.0895 12.9333 40.2663 12.9333C40.4431 12.9333 40.6127 12.8631 40.7377 12.7381C40.8627 12.613 40.9329 12.4435 40.9329 12.2667V8.93333H44.2663C44.4431 8.93333 44.6127 8.8631 44.7377 8.73807C44.8627 8.61305 44.9329 8.44348 44.9329 8.26667C44.9329 8.08986 44.8627 7.92029 44.7377 7.79526C44.6127 7.67024 44.4431 7.6 44.2663 7.6H40.9329Z" fill="#E2E8F0"/>
<path d="M72.9329 7.6V4.26667C72.9329 4.08986 72.8627 3.92029 72.7377 3.79526C72.6127 3.67024 72.4431 3.6 72.2663 3.6C72.0895 3.6 71.9199 3.67024 71.7949 3.79526C71.6698 3.92029 71.5996 4.08986 71.5996 4.26667V7.6H68.2663C68.0895 7.6 67.9199 7.67024 67.7949 7.79526C67.6698 7.92029 67.5996 8.08986 67.5996 8.26667C67.5996 8.44348 67.6698 8.61305 67.7949 8.73807C67.9199 8.8631 68.0895 8.93333 68.2663 8.93333H71.5996V12.2667C71.5996 12.4435 71.6698 12.613 71.7949 12.7381C71.9199 12.8631 72.0895 12.9333 72.2663 12.9333C72.4431 12.9333 72.6127 12.8631 72.7377 12.7381C72.8627 12.613 72.9329 12.4435 72.9329 12.2667V8.93333H76.2663C76.4431 8.93333 76.6127 8.8631 76.7377 8.73807C76.8627 8.61305 76.9329 8.44348 76.9329 8.26667C76.9329 8.08986 76.8627 7.92029 76.7377 7.79526C76.6127 7.67024 76.4431 7.6 76.2663 7.6H72.9329Z" fill="#E2E8F0"/>
<path d="M104.933 7.6V4.26667C104.933 4.08986 104.863 3.92029 104.738 3.79526C104.613 3.67024 104.443 3.6 104.266 3.6C104.089 3.6 103.92 3.67024 103.795 3.79526C103.67 3.92029 103.6 4.08986 103.6 4.26667V7.6H100.266C100.089 7.6 99.9199 7.67024 99.7949 7.79526C99.6698 7.92029 99.5996 8.08986 99.5996 8.26667C99.5996 8.44348 99.6698 8.61305 99.7949 8.73807C99.9199 8.8631 100.089 8.93333 100.266 8.93333H103.6V12.2667C103.6 12.4435 103.67 12.613 103.795 12.7381C103.92 12.8631 104.089 12.9333 104.266 12.9333C104.443 12.9333 104.613 12.8631 104.738 12.7381C104.863 12.613 104.933 12.4435 104.933 12.2667V8.93333H108.266C108.443 8.93333 108.613 8.8631 108.738 8.73807C108.863 8.61305 108.933 8.44348 108.933 8.26667C108.933 8.08986 108.863 7.92029 108.738 7.79526C108.613 7.67024 108.443 7.6 108.266 7.6H104.933Z" fill="#E2E8F0"/>
<path d="M136.933 7.6V4.26667C136.933 4.08986 136.863 3.92029 136.738 3.79526C136.613 3.67024 136.443 3.6 136.266 3.6C136.089 3.6 135.92 3.67024 135.795 3.79526C135.67 3.92029 135.6 4.08986 135.6 4.26667V7.6H132.266C132.089 7.6 131.92 7.67024 131.795 7.79526C131.67 7.92029 131.6 8.08986 131.6 8.26667C131.6 8.44348 131.67 8.61305 131.795 8.73807C131.92 8.8631 132.089 8.93333 132.266 8.93333H135.6V12.2667C135.6 12.4435 135.67 12.613 135.795 12.7381C135.92 12.8631 136.089 12.9333 136.266 12.9333C136.443 12.9333 136.613 12.8631 136.738 12.7381C136.863 12.613 136.933 12.4435 136.933 12.2667V8.93333H140.266C140.443 8.93333 140.613 8.8631 140.738 8.73807C140.863 8.61305 140.933 8.44348 140.933 8.26667C140.933 8.08986 140.863 7.92029 140.738 7.79526C140.613 7.67024 140.443 7.6 140.266 7.6H136.933Z" fill="#E2E8F0"/>
<path d="M168.933 7.6V4.26667C168.933 4.08986 168.863 3.92029 168.738 3.79526C168.613 3.67024 168.443 3.6 168.266 3.6C168.089 3.6 167.92 3.67024 167.795 3.79526C167.67 3.92029 167.6 4.08986 167.6 4.26667V7.6H164.266C164.089 7.6 163.92 7.67024 163.795 7.79526C163.67 7.92029 163.6 8.08986 163.6 8.26667C163.6 8.44348 163.67 8.61305 163.795 8.73807C163.92 8.8631 164.089 8.93333 164.266 8.93333H167.6V12.2667C167.6 12.4435 167.67 12.613 167.795 12.7381C167.92 12.8631 168.089 12.9333 168.266 12.9333C168.443 12.9333 168.613 12.8631 168.738 12.7381C168.863 12.613 168.933 12.4435 168.933 12.2667V8.93333H172.266C172.443 8.93333 172.613 8.8631 172.738 8.73807C172.863 8.61305 172.933 8.44348 172.933 8.26667C172.933 8.08986 172.863 7.92029 172.738 7.79526C172.613 7.67024 172.443 7.6 172.266 7.6H168.933Z" fill="#E2E8F0"/>
<path d="M8.93294 39.6V36.2667C8.93294 36.0899 8.8627 35.9203 8.73768 35.7953C8.61266 35.6702 8.44309 35.6 8.26628 35.6C8.08946 35.6 7.9199 35.6702 7.79487 35.7953C7.66985 35.9203 7.59961 36.0899 7.59961 36.2667V39.6H4.26628C4.08947 39.6 3.9199 39.6702 3.79487 39.7953C3.66985 39.9203 3.59961 40.0899 3.59961 40.2667C3.59961 40.4435 3.66985 40.613 3.79487 40.7381C3.9199 40.8631 4.08947 40.9333 4.26628 40.9333H7.59961V44.2667C7.59961 44.4435 7.66985 44.613 7.79487 44.7381C7.9199 44.8631 8.08946 44.9333 8.26628 44.9333C8.44309 44.9333 8.61266 44.8631 8.73768 44.7381C8.8627 44.613 8.93294 44.4435 8.93294 44.2667V40.9333H12.2663C12.4431 40.9333 12.6127 40.8631 12.7377 40.7381C12.8627 40.613 12.9329 40.4435 12.9329 40.2667C12.9329 40.0899 12.8627 39.9203 12.7377 39.7953C12.6127 39.6702 12.4431 39.6 12.2663 39.6H8.93294Z" fill="#E2E8F0"/>
<path d="M40.9329 39.6V36.2667C40.9329 36.0899 40.8627 35.9203 40.7377 35.7953C40.6127 35.6702 40.4431 35.6 40.2663 35.6C40.0895 35.6 39.9199 35.6702 39.7949 35.7953C39.6698 35.9203 39.5996 36.0899 39.5996 36.2667V39.6H36.2663C36.0895 39.6 35.9199 39.6702 35.7949 39.7953C35.6698 39.9203 35.5996 40.0899 35.5996 40.2667C35.5996 40.4435 35.6698 40.613 35.7949 40.7381C35.9199 40.8631 36.0895 40.9333 36.2663 40.9333H39.5996V44.2667C39.5996 44.4435 39.6698 44.613 39.7949 44.7381C39.9199 44.8631 40.0895 44.9333 40.2663 44.9333C40.4431 44.9333 40.6127 44.8631 40.7377 44.7381C40.8627 44.613 40.9329 44.4435 40.9329 44.2667V40.9333H44.2663C44.4431 40.9333 44.6127 40.8631 44.7377 40.7381C44.8627 40.613 44.9329 40.4435 44.9329 40.2667C44.9329 40.0899 44.8627 39.9203 44.7377 39.7953C44.6127 39.6702 44.4431 39.6 44.2663 39.6H40.9329Z" fill="#E2E8F0"/>
<path d="M72.9329 39.6V36.2667C72.9329 36.0899 72.8627 35.9203 72.7377 35.7953C72.6127 35.6702 72.4431 35.6 72.2663 35.6C72.0895 35.6 71.9199 35.6702 71.7949 35.7953C71.6698 35.9203 71.5996 36.0899 71.5996 36.2667V39.6H68.2663C68.0895 39.6 67.9199 39.6702 67.7949 39.7953C67.6698 39.9203 67.5996 40.0899 67.5996 40.2667C67.5996 40.4435 67.6698 40.613 67.7949 40.7381C67.9199 40.8631 68.0895 40.9333 68.2663 40.9333H71.5996V44.2667C71.5996 44.4435 71.6698 44.613 71.7949 44.7381C71.9199 44.8631 72.0895 44.9333 72.2663 44.9333C72.4431 44.9333 72.6127 44.8631 72.7377 44.7381C72.8627 44.613 72.9329 44.4435 72.9329 44.2667V40.9333H76.2663C76.4431 40.9333 76.6127 40.8631 76.7377 40.7381C76.8627 40.613 76.9329 40.4435 76.9329 40.2667C76.9329 40.0899 76.8627 39.9203 76.7377 39.7953C76.6127 39.6702 76.4431 39.6 76.2663 39.6H72.9329Z" fill="#E2E8F0"/>
<path d="M104.933 39.6V36.2667C104.933 36.0899 104.863 35.9203 104.738 35.7953C104.613 35.6702 104.443 35.6 104.266 35.6C104.089 35.6 103.92 35.6702 103.795 35.7953C103.67 35.9203 103.6 36.0899 103.6 36.2667V39.6H100.266C100.089 39.6 99.9199 39.6702 99.7949 39.7953C99.6698 39.9203 99.5996 40.0899 99.5996 40.2667C99.5996 40.4435 99.6698 40.613 99.7949 40.7381C99.9199 40.8631 100.089 40.9333 100.266 40.9333H103.6V44.2667C103.6 44.4435 103.67 44.613 103.795 44.7381C103.92 44.8631 104.089 44.9333 104.266 44.9333C104.443 44.9333 104.613 44.8631 104.738 44.7381C104.863 44.613 104.933 44.4435 104.933 44.2667V40.9333H108.266C108.443 40.9333 108.613 40.8631 108.738 40.7381C108.863 40.613 108.933 40.4435 108.933 40.2667C108.933 40.0899 108.863 39.9203 108.738 39.7953C108.613 39.6702 108.443 39.6 108.266 39.6H104.933Z" fill="#E2E8F0"/>
<path d="M136.933 39.6V36.2667C136.933 36.0899 136.863 35.9203 136.738 35.7953C136.613 35.6702 136.443 35.6 136.266 35.6C136.089 35.6 135.92 35.6702 135.795 35.7953C135.67 35.9203 135.6 36.0899 135.6 36.2667V39.6H132.266C132.089 39.6 131.92 39.6702 131.795 39.7953C131.67 39.9203 131.6 40.0899 131.6 40.2667C131.6 40.4435 131.67 40.613 131.795 40.7381C131.92 40.8631 132.089 40.9333 132.266 40.9333H135.6V44.2667C135.6 44.4435 135.67 44.613 135.795 44.7381C135.92 44.8631 136.089 44.9333 136.266 44.9333C136.443 44.9333 136.613 44.8631 136.738 44.7381C136.863 44.613 136.933 44.4435 136.933 44.2667V40.9333H140.266C140.443 40.9333 140.613 40.8631 140.738 40.7381C140.863 40.613 140.933 40.4435 140.933 40.2667C140.933 40.0899 140.863 39.9203 140.738 39.7953C140.613 39.6702 140.443 39.6 140.266 39.6H136.933Z" fill="#2563EB"/>
<path d="M168.933 39.6V36.2667C168.933 36.0899 168.863 35.9203 168.738 35.7953C168.613 35.6702 168.443 35.6 168.266 35.6C168.089 35.6 167.92 35.6702 167.795 35.7953C167.67 35.9203 167.6 36.0899 167.6 36.2667V39.6H164.266C164.089 39.6 163.92 39.6702 163.795 39.7953C163.67 39.9203 163.6 40.0899 163.6 40.2667C163.6 40.4435 163.67 40.613 163.795 40.7381C163.92 40.8631 164.089 40.9333 164.266 40.9333H167.6V44.2667C167.6 44.4435 167.67 44.613 167.795 44.7381C167.92 44.8631 168.089 44.9333 168.266 44.9333C168.443 44.9333 168.613 44.8631 168.738 44.7381C168.863 44.613 168.933 44.4435 168.933 44.2667V40.9333H172.266C172.443 40.9333 172.613 40.8631 172.738 40.7381C172.863 40.613 172.933 40.4435 172.933 40.2667C172.933 40.0899 172.863 39.9203 172.738 39.7953C172.613 39.6702 172.443 39.6 172.266 39.6H168.933Z" fill="#E2E8F0"/>
<path d="M8.93294 71.6V68.2667C8.93294 68.0899 8.8627 67.9203 8.73768 67.7953C8.61266 67.6702 8.44309 67.6 8.26628 67.6C8.08946 67.6 7.9199 67.6702 7.79487 67.7953C7.66985 67.9203 7.59961 68.0899 7.59961 68.2667V71.6H4.26628C4.08947 71.6 3.9199 71.6702 3.79487 71.7953C3.66985 71.9203 3.59961 72.0899 3.59961 72.2667C3.59961 72.4435 3.66985 72.613 3.79487 72.7381C3.9199 72.8631 4.08947 72.9333 4.26628 72.9333H7.59961V76.2667C7.59961 76.4435 7.66985 76.613 7.79487 76.7381C7.9199 76.8631 8.08946 76.9333 8.26628 76.9333C8.44309 76.9333 8.61266 76.8631 8.73768 76.7381C8.8627 76.613 8.93294 76.4435 8.93294 76.2667V72.9333H12.2663C12.4431 72.9333 12.6127 72.8631 12.7377 72.7381C12.8627 72.613 12.9329 72.4435 12.9329 72.2667C12.9329 72.0899 12.8627 71.9203 12.7377 71.7953C12.6127 71.6702 12.4431 71.6 12.2663 71.6H8.93294Z" fill="#E2E8F0"/>
<path d="M40.9329 71.6V68.2667C40.9329 68.0899 40.8627 67.9203 40.7377 67.7953C40.6127 67.6702 40.4431 67.6 40.2663 67.6C40.0895 67.6 39.9199 67.6702 39.7949 67.7953C39.6698 67.9203 39.5996 68.0899 39.5996 68.2667V71.6H36.2663C36.0895 71.6 35.9199 71.6702 35.7949 71.7953C35.6698 71.9203 35.5996 72.0899 35.5996 72.2667C35.5996 72.4435 35.6698 72.613 35.7949 72.7381C35.9199 72.8631 36.0895 72.9333 36.2663 72.9333H39.5996V76.2667C39.5996 76.4435 39.6698 76.613 39.7949 76.7381C39.9199 76.8631 40.0895 76.9333 40.2663 76.9333C40.4431 76.9333 40.6127 76.8631 40.7377 76.7381C40.8627 76.613 40.9329 76.4435 40.9329 76.2667V72.9333H44.2663C44.4431 72.9333 44.6127 72.8631 44.7377 72.7381C44.8627 72.613 44.9329 72.4435 44.9329 72.2667C44.9329 72.0899 44.8627 71.9203 44.7377 71.7953C44.6127 71.6702 44.4431 71.6 44.2663 71.6H40.9329Z" fill="#E2E8F0"/>
<path d="M72.9329 71.6V68.2667C72.9329 68.0899 72.8627 67.9203 72.7377 67.7953C72.6127 67.6702 72.4431 67.6 72.2663 67.6C72.0895 67.6 71.9199 67.6702 71.7949 67.7953C71.6698 67.9203 71.5996 68.0899 71.5996 68.2667V71.6H68.2663C68.0895 71.6 67.9199 71.6702 67.7949 71.7953C67.6698 71.9203 67.5996 72.0899 67.5996 72.2667C67.5996 72.4435 67.6698 72.613 67.7949 72.7381C67.9199 72.8631 68.0895 72.9333 68.2663 72.9333H71.5996V76.2667C71.5996 76.4435 71.6698 76.613 71.7949 76.7381C71.9199 76.8631 72.0895 76.9333 72.2663 76.9333C72.4431 76.9333 72.6127 76.8631 72.7377 76.7381C72.8627 76.613 72.9329 76.4435 72.9329 76.2667V72.9333H76.2663C76.4431 72.9333 76.6127 72.8631 76.7377 72.7381C76.8627 72.613 76.9329 72.4435 76.9329 72.2667C76.9329 72.0899 76.8627 71.9203 76.7377 71.7953C76.6127 71.6702 76.4431 71.6 76.2663 71.6H72.9329Z" fill="#E2E8F0"/>
<path d="M104.933 71.6V68.2667C104.933 68.0899 104.863 67.9203 104.738 67.7953C104.613 67.6702 104.443 67.6 104.266 67.6C104.089 67.6 103.92 67.6702 103.795 67.7953C103.67 67.9203 103.6 68.0899 103.6 68.2667V71.6H100.266C100.089 71.6 99.9199 71.6702 99.7949 71.7953C99.6698 71.9203 99.5996 72.0899 99.5996 72.2667C99.5996 72.4435 99.6698 72.613 99.7949 72.7381C99.9199 72.8631 100.089 72.9333 100.266 72.9333H103.6V76.2667C103.6 76.4435 103.67 76.613 103.795 76.7381C103.92 76.8631 104.089 76.9333 104.266 76.9333C104.443 76.9333 104.613 76.8631 104.738 76.7381C104.863 76.613 104.933 76.4435 104.933 76.2667V72.9333H108.266C108.443 72.9333 108.613 72.8631 108.738 72.7381C108.863 72.613 108.933 72.4435 108.933 72.2667C108.933 72.0899 108.863 71.9203 108.738 71.7953C108.613 71.6702 108.443 71.6 108.266 71.6H104.933Z" fill="#E2E8F0"/>
<path d="M136.933 71.6V68.2667C136.933 68.0899 136.863 67.9203 136.738 67.7953C136.613 67.6702 136.443 67.6 136.266 67.6C136.089 67.6 135.92 67.6702 135.795 67.7953C135.67 67.9203 135.6 68.0899 135.6 68.2667V71.6H132.266C132.089 71.6 131.92 71.6702 131.795 71.7953C131.67 71.9203 131.6 72.0899 131.6 72.2667C131.6 72.4435 131.67 72.613 131.795 72.7381C131.92 72.8631 132.089 72.9333 132.266 72.9333H135.6V76.2667C135.6 76.4435 135.67 76.613 135.795 76.7381C135.92 76.8631 136.089 76.9333 136.266 76.9333C136.443 76.9333 136.613 76.8631 136.738 76.7381C136.863 76.613 136.933 76.4435 136.933 76.2667V72.9333H140.266C140.443 72.9333 140.613 72.8631 140.738 72.7381C140.863 72.613 140.933 72.4435 140.933 72.2667C140.933 72.0899 140.863 71.9203 140.738 71.7953C140.613 71.6702 140.443 71.6 140.266 71.6H136.933Z" fill="#E2E8F0"/>
<path d="M168.933 71.6V68.2667C168.933 68.0899 168.863 67.9203 168.738 67.7953C168.613 67.6702 168.443 67.6 168.266 67.6C168.089 67.6 167.92 67.6702 167.795 67.7953C167.67 67.9203 167.6 68.0899 167.6 68.2667V71.6H164.266C164.089 71.6 163.92 71.6702 163.795 71.7953C163.67 71.9203 163.6 72.0899 163.6 72.2667C163.6 72.4435 163.67 72.613 163.795 72.7381C163.92 72.8631 164.089 72.9333 164.266 72.9333H167.6V76.2667C167.6 76.4435 167.67 76.613 167.795 76.7381C167.92 76.8631 168.089 76.9333 168.266 76.9333C168.443 76.9333 168.613 76.8631 168.738 76.7381C168.863 76.613 168.933 76.4435 168.933 76.2667V72.9333H172.266C172.443 72.9333 172.613 72.8631 172.738 72.7381C172.863 72.613 172.933 72.4435 172.933 72.2667C172.933 72.0899 172.863 71.9203 172.738 71.7953C172.613 71.6702 172.443 71.6 172.266 71.6H168.933Z" fill="#E2E8F0"/>
<path d="M8.93294 103.6V100.267C8.93294 100.09 8.8627 99.9203 8.73768 99.7953C8.61266 99.6702 8.44309 99.6 8.26628 99.6C8.08946 99.6 7.9199 99.6702 7.79487 99.7953C7.66985 99.9203 7.59961 100.09 7.59961 100.267V103.6H4.26628C4.08947 103.6 3.9199 103.67 3.79487 103.795C3.66985 103.92 3.59961 104.09 3.59961 104.267C3.59961 104.443 3.66985 104.613 3.79487 104.738C3.9199 104.863 4.08947 104.933 4.26628 104.933H7.59961V108.267C7.59961 108.443 7.66985 108.613 7.79487 108.738C7.9199 108.863 8.08946 108.933 8.26628 108.933C8.44309 108.933 8.61266 108.863 8.73768 108.738C8.8627 108.613 8.93294 108.443 8.93294 108.267V104.933H12.2663C12.4431 104.933 12.6127 104.863 12.7377 104.738C12.8627 104.613 12.9329 104.443 12.9329 104.267C12.9329 104.09 12.8627 103.92 12.7377 103.795C12.6127 103.67 12.4431 103.6 12.2663 103.6H8.93294Z" fill="#E2E8F0"/>
<path d="M40.9329 103.6V100.267C40.9329 100.09 40.8627 99.9203 40.7377 99.7953C40.6127 99.6702 40.4431 99.6 40.2663 99.6C40.0895 99.6 39.9199 99.6702 39.7949 99.7953C39.6698 99.9203 39.5996 100.09 39.5996 100.267V103.6H36.2663C36.0895 103.6 35.9199 103.67 35.7949 103.795C35.6698 103.92 35.5996 104.09 35.5996 104.267C35.5996 104.443 35.6698 104.613 35.7949 104.738C35.9199 104.863 36.0895 104.933 36.2663 104.933H39.5996V108.267C39.5996 108.443 39.6698 108.613 39.7949 108.738C39.9199 108.863 40.0895 108.933 40.2663 108.933C40.4431 108.933 40.6127 108.863 40.7377 108.738C40.8627 108.613 40.9329 108.443 40.9329 108.267V104.933H44.2663C44.4431 104.933 44.6127 104.863 44.7377 104.738C44.8627 104.613 44.9329 104.443 44.9329 104.267C44.9329 104.09 44.8627 103.92 44.7377 103.795C44.6127 103.67 44.4431 103.6 44.2663 103.6H40.9329Z" fill="#E2E8F0"/>
<path d="M72.9329 103.6V100.267C72.9329 100.09 72.8627 99.9203 72.7377 99.7953C72.6127 99.6702 72.4431 99.6 72.2663 99.6C72.0895 99.6 71.9199 99.6702 71.7949 99.7953C71.6698 99.9203 71.5996 100.09 71.5996 100.267V103.6H68.2663C68.0895 103.6 67.9199 103.67 67.7949 103.795C67.6698 103.92 67.5996 104.09 67.5996 104.267C67.5996 104.443 67.6698 104.613 67.7949 104.738C67.9199 104.863 68.0895 104.933 68.2663 104.933H71.5996V108.267C71.5996 108.443 71.6698 108.613 71.7949 108.738C71.9199 108.863 72.0895 108.933 72.2663 108.933C72.4431 108.933 72.6127 108.863 72.7377 108.738C72.8627 108.613 72.9329 108.443 72.9329 108.267V104.933H76.2663C76.4431 104.933 76.6127 104.863 76.7377 104.738C76.8627 104.613 76.9329 104.443 76.9329 104.267C76.9329 104.09 76.8627 103.92 76.7377 103.795C76.6127 103.67 76.4431 103.6 76.2663 103.6H72.9329Z" fill="#E2E8F0"/>
<path d="M104.933 103.6V100.267C104.933 100.09 104.863 99.9203 104.738 99.7953C104.613 99.6702 104.443 99.6 104.266 99.6C104.089 99.6 103.92 99.6702 103.795 99.7953C103.67 99.9203 103.6 100.09 103.6 100.267V103.6H100.266C100.089 103.6 99.9199 103.67 99.7949 103.795C99.6698 103.92 99.5996 104.09 99.5996 104.267C99.5996 104.443 99.6698 104.613 99.7949 104.738C99.9199 104.863 100.089 104.933 100.266 104.933H103.6V108.267C103.6 108.443 103.67 108.613 103.795 108.738C103.92 108.863 104.089 108.933 104.266 108.933C104.443 108.933 104.613 108.863 104.738 108.738C104.863 108.613 104.933 108.443 104.933 108.267V104.933H108.266C108.443 104.933 108.613 104.863 108.738 104.738C108.863 104.613 108.933 104.443 108.933 104.267C108.933 104.09 108.863 103.92 108.738 103.795C108.613 103.67 108.443 103.6 108.266 103.6H104.933Z" fill="#E2E8F0"/>
<path d="M136.933 103.6V100.267C136.933 100.09 136.863 99.9203 136.738 99.7953C136.613 99.6702 136.443 99.6 136.266 99.6C136.089 99.6 135.92 99.6702 135.795 99.7953C135.67 99.9203 135.6 100.09 135.6 100.267V103.6H132.266C132.089 103.6 131.92 103.67 131.795 103.795C131.67 103.92 131.6 104.09 131.6 104.267C131.6 104.443 131.67 104.613 131.795 104.738C131.92 104.863 132.089 104.933 132.266 104.933H135.6V108.267C135.6 108.443 135.67 108.613 135.795 108.738C135.92 108.863 136.089 108.933 136.266 108.933C136.443 108.933 136.613 108.863 136.738 108.738C136.863 108.613 136.933 108.443 136.933 108.267V104.933H140.266C140.443 104.933 140.613 104.863 140.738 104.738C140.863 104.613 140.933 104.443 140.933 104.267C140.933 104.09 140.863 103.92 140.738 103.795C140.613 103.67 140.443 103.6 140.266 103.6H136.933Z" fill="#E2E8F0"/>
<path d="M168.933 103.6V100.267C168.933 100.09 168.863 99.9203 168.738 99.7953C168.613 99.6702 168.443 99.6 168.266 99.6C168.089 99.6 167.92 99.6702 167.795 99.7953C167.67 99.9203 167.6 100.09 167.6 100.267V103.6H164.266C164.089 103.6 163.92 103.67 163.795 103.795C163.67 103.92 163.6 104.09 163.6 104.267C163.6 104.443 163.67 104.613 163.795 104.738C163.92 104.863 164.089 104.933 164.266 104.933H167.6V108.267C167.6 108.443 167.67 108.613 167.795 108.738C167.92 108.863 168.089 108.933 168.266 108.933C168.443 108.933 168.613 108.863 168.738 108.738C168.863 108.613 168.933 108.443 168.933 108.267V104.933H172.266C172.443 104.933 172.613 104.863 172.738 104.738C172.863 104.613 172.933 104.443 172.933 104.267C172.933 104.09 172.863 103.92 172.738 103.795C172.613 103.67 172.443 103.6 172.266 103.6H168.933Z" fill="#EA580C"/>
<path d="M8.93294 135.6V132.267C8.93294 132.09 8.8627 131.92 8.73768 131.795C8.61266 131.67 8.44309 131.6 8.26628 131.6C8.08946 131.6 7.9199 131.67 7.79487 131.795C7.66985 131.92 7.59961 132.09 7.59961 132.267V135.6H4.26628C4.08947 135.6 3.9199 135.67 3.79487 135.795C3.66985 135.92 3.59961 136.09 3.59961 136.267C3.59961 136.443 3.66985 136.613 3.79487 136.738C3.9199 136.863 4.08947 136.933 4.26628 136.933H7.59961V140.267C7.59961 140.443 7.66985 140.613 7.79487 140.738C7.9199 140.863 8.08946 140.933 8.26628 140.933C8.44309 140.933 8.61266 140.863 8.73768 140.738C8.8627 140.613 8.93294 140.443 8.93294 140.267V136.933H12.2663C12.4431 136.933 12.6127 136.863 12.7377 136.738C12.8627 136.613 12.9329 136.443 12.9329 136.267C12.9329 136.09 12.8627 135.92 12.7377 135.795C12.6127 135.67 12.4431 135.6 12.2663 135.6H8.93294Z" fill="#E2E8F0"/>
<path d="M40.9329 135.6V132.267C40.9329 132.09 40.8627 131.92 40.7377 131.795C40.6127 131.67 40.4431 131.6 40.2663 131.6C40.0895 131.6 39.9199 131.67 39.7949 131.795C39.6698 131.92 39.5996 132.09 39.5996 132.267V135.6H36.2663C36.0895 135.6 35.9199 135.67 35.7949 135.795C35.6698 135.92 35.5996 136.09 35.5996 136.267C35.5996 136.443 35.6698 136.613 35.7949 136.738C35.9199 136.863 36.0895 136.933 36.2663 136.933H39.5996V140.267C39.5996 140.443 39.6698 140.613 39.7949 140.738C39.9199 140.863 40.0895 140.933 40.2663 140.933C40.4431 140.933 40.6127 140.863 40.7377 140.738C40.8627 140.613 40.9329 140.443 40.9329 140.267V136.933H44.2663C44.4431 136.933 44.6127 136.863 44.7377 136.738C44.8627 136.613 44.9329 136.443 44.9329 136.267C44.9329 136.09 44.8627 135.92 44.7377 135.795C44.6127 135.67 44.4431 135.6 44.2663 135.6H40.9329Z" fill="#E2E8F0"/>
<path d="M72.9329 135.6V132.267C72.9329 132.09 72.8627 131.92 72.7377 131.795C72.6127 131.67 72.4431 131.6 72.2663 131.6C72.0895 131.6 71.9199 131.67 71.7949 131.795C71.6698 131.92 71.5996 132.09 71.5996 132.267V135.6H68.2663C68.0895 135.6 67.9199 135.67 67.7949 135.795C67.6698 135.92 67.5996 136.09 67.5996 136.267C67.5996 136.443 67.6698 136.613 67.7949 136.738C67.9199 136.863 68.0895 136.933 68.2663 136.933H71.5996V140.267C71.5996 140.443 71.6698 140.613 71.7949 140.738C71.9199 140.863 72.0895 140.933 72.2663 140.933C72.4431 140.933 72.6127 140.863 72.7377 140.738C72.8627 140.613 72.9329 140.443 72.9329 140.267V136.933H76.2663C76.4431 136.933 76.6127 136.863 76.7377 136.738C76.8627 136.613 76.9329 136.443 76.9329 136.267C76.9329 136.09 76.8627 135.92 76.7377 135.795C76.6127 135.67 76.4431 135.6 76.2663 135.6H72.9329Z" fill="#E2E8F0"/>
<path d="M104.933 135.6V132.267C104.933 132.09 104.863 131.92 104.738 131.795C104.613 131.67 104.443 131.6 104.266 131.6C104.089 131.6 103.92 131.67 103.795 131.795C103.67 131.92 103.6 132.09 103.6 132.267V135.6H100.266C100.089 135.6 99.9199 135.67 99.7949 135.795C99.6698 135.92 99.5996 136.09 99.5996 136.267C99.5996 136.443 99.6698 136.613 99.7949 136.738C99.9199 136.863 100.089 136.933 100.266 136.933H103.6V140.267C103.6 140.443 103.67 140.613 103.795 140.738C103.92 140.863 104.089 140.933 104.266 140.933C104.443 140.933 104.613 140.863 104.738 140.738C104.863 140.613 104.933 140.443 104.933 140.267V136.933H108.266C108.443 136.933 108.613 136.863 108.738 136.738C108.863 136.613 108.933 136.443 108.933 136.267C108.933 136.09 108.863 135.92 108.738 135.795C108.613 135.67 108.443 135.6 108.266 135.6H104.933Z" fill="#E2E8F0"/>
<path d="M136.933 135.6V132.267C136.933 132.09 136.863 131.92 136.738 131.795C136.613 131.67 136.443 131.6 136.266 131.6C136.089 131.6 135.92 131.67 135.795 131.795C135.67 131.92 135.6 132.09 135.6 132.267V135.6H132.266C132.089 135.6 131.92 135.67 131.795 135.795C131.67 135.92 131.6 136.09 131.6 136.267C131.6 136.443 131.67 136.613 131.795 136.738C131.92 136.863 132.089 136.933 132.266 136.933H135.6V140.267C135.6 140.443 135.67 140.613 135.795 140.738C135.92 140.863 136.089 140.933 136.266 140.933C136.443 140.933 136.613 140.863 136.738 140.738C136.863 140.613 136.933 140.443 136.933 140.267V136.933H140.266C140.443 136.933 140.613 136.863 140.738 136.738C140.863 136.613 140.933 136.443 140.933 136.267C140.933 136.09 140.863 135.92 140.738 135.795C140.613 135.67 140.443 135.6 140.266 135.6H136.933Z" fill="#E2E8F0"/>
<path d="M168.933 135.6V132.267C168.933 132.09 168.863 131.92 168.738 131.795C168.613 131.67 168.443 131.6 168.266 131.6C168.089 131.6 167.92 131.67 167.795 131.795C167.67 131.92 167.6 132.09 167.6 132.267V135.6H164.266C164.089 135.6 163.92 135.67 163.795 135.795C163.67 135.92 163.6 136.09 163.6 136.267C163.6 136.443 163.67 136.613 163.795 136.738C163.92 136.863 164.089 136.933 164.266 136.933H167.6V140.267C167.6 140.443 167.67 140.613 167.795 140.738C167.92 140.863 168.089 140.933 168.266 140.933C168.443 140.933 168.613 140.863 168.738 140.738C168.863 140.613 168.933 140.443 168.933 140.267V136.933H172.266C172.443 136.933 172.613 136.863 172.738 136.738C172.863 136.613 172.933 136.443 172.933 136.267C172.933 136.09 172.863 135.92 172.738 135.795C172.613 135.67 172.443 135.6 172.266 135.6H168.933Z" fill="#E2E8F0"/>
<path d="M8.93294 167.6V164.267C8.93294 164.09 8.8627 163.92 8.73768 163.795C8.61266 163.67 8.44309 163.6 8.26628 163.6C8.08946 163.6 7.9199 163.67 7.79487 163.795C7.66985 163.92 7.59961 164.09 7.59961 164.267V167.6H4.26628C4.08947 167.6 3.9199 167.67 3.79487 167.795C3.66985 167.92 3.59961 168.09 3.59961 168.267C3.59961 168.443 3.66985 168.613 3.79487 168.738C3.9199 168.863 4.08947 168.933 4.26628 168.933H7.59961V172.267C7.59961 172.443 7.66985 172.613 7.79487 172.738C7.9199 172.863 8.08946 172.933 8.26628 172.933C8.44309 172.933 8.61266 172.863 8.73768 172.738C8.8627 172.613 8.93294 172.443 8.93294 172.267V168.933H12.2663C12.4431 168.933 12.6127 168.863 12.7377 168.738C12.8627 168.613 12.9329 168.443 12.9329 168.267C12.9329 168.09 12.8627 167.92 12.7377 167.795C12.6127 167.67 12.4431 167.6 12.2663 167.6H8.93294Z" fill="#E2E8F0"/>
<path d="M40.9329 167.6V164.267C40.9329 164.09 40.8627 163.92 40.7377 163.795C40.6127 163.67 40.4431 163.6 40.2663 163.6C40.0895 163.6 39.9199 163.67 39.7949 163.795C39.6698 163.92 39.5996 164.09 39.5996 164.267V167.6H36.2663C36.0895 167.6 35.9199 167.67 35.7949 167.795C35.6698 167.92 35.5996 168.09 35.5996 168.267C35.5996 168.443 35.6698 168.613 35.7949 168.738C35.9199 168.863 36.0895 168.933 36.2663 168.933H39.5996V172.267C39.5996 172.443 39.6698 172.613 39.7949 172.738C39.9199 172.863 40.0895 172.933 40.2663 172.933C40.4431 172.933 40.6127 172.863 40.7377 172.738C40.8627 172.613 40.9329 172.443 40.9329 172.267V168.933H44.2663C44.4431 168.933 44.6127 168.863 44.7377 168.738C44.8627 168.613 44.9329 168.443 44.9329 168.267C44.9329 168.09 44.8627 167.92 44.7377 167.795C44.6127 167.67 44.4431 167.6 44.2663 167.6H40.9329Z" fill="#E2E8F0"/>
<path d="M72.9329 167.6V164.267C72.9329 164.09 72.8627 163.92 72.7377 163.795C72.6127 163.67 72.4431 163.6 72.2663 163.6C72.0895 163.6 71.9199 163.67 71.7949 163.795C71.6698 163.92 71.5996 164.09 71.5996 164.267V167.6H68.2663C68.0895 167.6 67.9199 167.67 67.7949 167.795C67.6698 167.92 67.5996 168.09 67.5996 168.267C67.5996 168.443 67.6698 168.613 67.7949 168.738C67.9199 168.863 68.0895 168.933 68.2663 168.933H71.5996V172.267C71.5996 172.443 71.6698 172.613 71.7949 172.738C71.9199 172.863 72.0895 172.933 72.2663 172.933C72.4431 172.933 72.6127 172.863 72.7377 172.738C72.8627 172.613 72.9329 172.443 72.9329 172.267V168.933H76.2663C76.4431 168.933 76.6127 168.863 76.7377 168.738C76.8627 168.613 76.9329 168.443 76.9329 168.267C76.9329 168.09 76.8627 167.92 76.7377 167.795C76.6127 167.67 76.4431 167.6 76.2663 167.6H72.9329Z" fill="#9333EA"/>
<path d="M104.933 167.6V164.267C104.933 164.09 104.863 163.92 104.738 163.795C104.613 163.67 104.443 163.6 104.266 163.6C104.089 163.6 103.92 163.67 103.795 163.795C103.67 163.92 103.6 164.09 103.6 164.267V167.6H100.266C100.089 167.6 99.9199 167.67 99.7949 167.795C99.6698 167.92 99.5996 168.09 99.5996 168.267C99.5996 168.443 99.6698 168.613 99.7949 168.738C99.9199 168.863 100.089 168.933 100.266 168.933H103.6V172.267C103.6 172.443 103.67 172.613 103.795 172.738C103.92 172.863 104.089 172.933 104.266 172.933C104.443 172.933 104.613 172.863 104.738 172.738C104.863 172.613 104.933 172.443 104.933 172.267V168.933H108.266C108.443 168.933 108.613 168.863 108.738 168.738C108.863 168.613 108.933 168.443 108.933 168.267C108.933 168.09 108.863 167.92 108.738 167.795C108.613 167.67 108.443 167.6 108.266 167.6H104.933Z" fill="#E2E8F0"/>
<path d="M136.933 167.6V164.267C136.933 164.09 136.863 163.92 136.738 163.795C136.613 163.67 136.443 163.6 136.266 163.6C136.089 163.6 135.92 163.67 135.795 163.795C135.67 163.92 135.6 164.09 135.6 164.267V167.6H132.266C132.089 167.6 131.92 167.67 131.795 167.795C131.67 167.92 131.6 168.09 131.6 168.267C131.6 168.443 131.67 168.613 131.795 168.738C131.92 168.863 132.089 168.933 132.266 168.933H135.6V172.267C135.6 172.443 135.67 172.613 135.795 172.738C135.92 172.863 136.089 172.933 136.266 172.933C136.443 172.933 136.613 172.863 136.738 172.738C136.863 172.613 136.933 172.443 136.933 172.267V168.933H140.266C140.443 168.933 140.613 168.863 140.738 168.738C140.863 168.613 140.933 168.443 140.933 168.267C140.933 168.09 140.863 167.92 140.738 167.795C140.613 167.67 140.443 167.6 140.266 167.6H136.933Z" fill="#E2E8F0"/>
<path d="M168.933 167.6V164.267C168.933 164.09 168.863 163.92 168.738 163.795C168.613 163.67 168.443 163.6 168.266 163.6C168.089 163.6 167.92 163.67 167.795 163.795C167.67 163.92 167.6 164.09 167.6 164.267V167.6H164.266C164.089 167.6 163.92 167.67 163.795 167.795C163.67 167.92 163.6 168.09 163.6 168.267C163.6 168.443 163.67 168.613 163.795 168.738C163.92 168.863 164.089 168.933 164.266 168.933H167.6V172.267C167.6 172.443 167.67 172.613 167.795 172.738C167.92 172.863 168.089 172.933 168.266 172.933C168.443 172.933 168.613 172.863 168.738 172.738C168.863 172.613 168.933 172.443 168.933 172.267V168.933H172.266C172.443 168.933 172.613 168.863 172.738 168.738C172.863 168.613 172.933 168.443 172.933 168.267C172.933 168.09 172.863 167.92 172.738 167.795C172.613 167.67 172.443 167.6 172.266 167.6H168.933Z" fill="#E2E8F0"/>
</svg>
